# xmcd
#
# Track frame offsets: 
#        150
#        15935
#        30788
#        42163
#        59443
#        73083
#        90815
#        104438
#        127943
#        143380
#
# Disc length: 2076 seconds
#
# Revision: 5
# Processed by: cddbd v1.5.2PL0 Copyright (c) Steve Scherf et al.
# Submitted via: ExactAudioCopy v0.99pb4
#
DISCID=6b081a0a
DTITLE=Various Artist - Billboard Top R&B Hits - 1971
DYEAR=1990
DGENRE=R&B
TTITLE0=Aretha Franklin - Spanish Harlem
TTITLE1=James Brown - Make It Funky
TTITLE2=Jean Knight - Mr. Big Stuff
TTITLE3=Temptations - Just My Imagination (Running Away With Me)
TTITLE4=King Floyd - Groove Me
TTITLE5=Marvin Gaye - What's Going On
TTITLE6=Jackson Five - Never Can Say Goodbye
TTITLE7=Chi-Lites - Have You Seen Her
TTITLE8=Persuaders - Thin Line Between Love And Hate
TTITLE9=Betty Wright - Clean Up Woman
EXTD=
EXTT0=Aretha Franklin\n
EXTT1=James Brown\n
EXTT2=Jean Knight\n
EXTT3=The Temptations\n
EXTT4=King Floyd\n
EXTT5=Marvin Gaye\n
EXTT6=The Jackson 5\n
EXTT7=The Chi-Lites\n
EXTT8=The Persuaders\n
EXTT9=Betty Wright\n
PLAYORDER=
